# xmcd CD database file
#
# Track frame offsets:
#	150
#	13893
#	23270
#	35097
#	49118
#	61021
#	70100
#	79839
#	95056
#	106390
#	117489
#	128320
#	139389
#	149761
#	163188
#	173349
#	187008
#	198908
#	217025
#	235840
#
# Disc length: 3334 seconds
#
# Revision: 0
# Processed by: cddbd v1.5.1PL0 Copyright (c) Steve Scherf et al.
# Submitted via: CDex 1.51
#
DISCID=1d0d0414
DTITLE=Frankie Laine - Golden Hits and Country Favourites
DYEAR=2004
DGENRE=Country
TTITLE0=Riders in the sky
TTITLE1=Blazing Saddles
TTITLE2=Wanted Man
TTITLE3=Dont fence me in
TTITLE4=Jambalaya
TTITLE5=Your Cheating Heart
TTITLE6=Gunfight at OK Corral
TTITLE7=Tumbling Tumbleweeds
TTITLE8=Along the Najavo Trail
TTITLE9=The 3-10 to Yuma
TTITLE10=Hummingbird
TTITLE11=Call of the Wild
TTITLE12=The Hanging Tree
TTITLE13=You've changed
TTITLE14=Up Above my Head
TTITLE15=Way down Yonder in New Orleans
TTITLE16=In the Cool, Cool, Cool of the Evening
TTITLE17=Don't cry Baby
TTITLE18=Makin' Whoopee
TTITLE19=Fly Away
EXTD=YEAR: 2004
EXTT0=
EXTT1=
EXTT2=
EXTT3=
EXTT4=
EXTT5=
EXTT6=
EXTT7=
EXTT8=
EXTT9=
EXTT10=
EXTT11=
EXTT12=
EXTT13=
EXTT14=
EXTT15=
EXTT16=
EXTT17=
EXTT18=
EXTT19=
PLAYORDER=
